<?xml version="1.0" encoding="UTF-8"?>
<svg width="60px" height="60px" viewBox="0 0 60 60" version="1.1" xmlns="http://www.w3.org/2000/svg" xmlns:xlink="http://www.w3.org/1999/xlink">
    <title>Icons/Blue error</title>
    <g id="Page-1" stroke="none" stroke-width="1" fill="none" fill-rule="evenodd">
        <g id="Purchases_13" transform="translate(-158.000000, -183.000000)">
            <g id="Group" transform="translate(55.000000, 135.000000)">
                <g transform="translate(103.000000, 48.000000)" id="Icons/Blue-error">
                    <circle id="Oval" fill="#E5EBFF" cx="30" cy="30" r="30"></circle>
                    <g id="Group" transform="translate(26.000000, 14.000000)" fill="#3562FE" fill-rule="nonzero">
                        <g id="Icons/!-Blue">
                            <path d="M4.40508179,21.7011494 C4.68995663,21.7011494 4.83239405,21.5478927 4.83239405,21.2413793 L6.97286146,3.94039293 C7.2108444,2.0168226 5.84440583,0.264537441 3.9208355,0.0265544993 C3.77788115,0.0088682752 3.63397352,-2.64605007e-17 3.48992926,0 C1.56262104,3.54040776e-16 0.000229035349,1.56239201 0.000229035349,3.48970023 C0.000229035349,3.63946363 0.00986985785,3.78907172 0.0290916997,3.93759646 L2.26852048,21.2413793 L2.26852048,21.2413793 C2.26852048,21.5478927 2.4109579,21.7011494 2.69583274,21.7011494 L4.40508179,21.7011494 Z M3.37953236,32 C4.09171946,32 4.66859101,31.7624521 5.11014702,31.2873563 C5.55170302,30.8122605 5.77248102,30.2068966 5.77248102,29.4712644 C5.77248102,28.7049808 5.55170302,28.0842912 5.11014702,27.6091954 C4.66859101,27.1340996 4.09171946,26.8965517 3.37953236,26.8965517 C2.69583274,26.8965517 2.13320493,27.1340996 1.69164892,27.6091954 C1.25009292,28.0842912 1.02931492,28.7049808 1.02931492,29.4712644 C1.02931492,30.2068966 1.25009292,30.8122605 1.69164892,31.2873563 C2.13320493,31.7624521 2.69583274,32 3.37953236,32 Z" id="Icons/!"></path>
                        </g>
                    </g>
                </g>
            </g>
        </g>
    </g>
</svg>