<svg xmlns="http://www.w3.org/2000/svg" width="17" height="17" viewBox="0 0 17 17">
    <g fill="none" fill-rule="evenodd">
        <g fill="#3562FE">
            <g>
                <g>
                    <path d="M10.815 5.118c-.441-.186-.91-.281-1.393-.281-.233 0-.422.189-.422.422 0 .233.189.422.422.422 1.507 0 2.734 1.226 2.734 2.734 0 .233.189.422.422.422.116 0 .222-.047.298-.124.077-.076.124-.182.124-.298 0-.483-.095-.952-.281-1.393-.18-.426-.438-.809-.767-1.137-.328-.329-.711-.587-1.137-.767z" transform="translate(-97 -399) translate(55 173) translate(42 225.163)"/>
                    <path d="M14.516 9.837c.134 0 .255-.054.342-.142.088-.087.142-.208.142-.342 0-.88-.172-1.733-.512-2.537-.328-.776-.798-1.472-1.396-2.07-.599-.599-1.296-1.069-2.071-1.397-.804-.34-1.658-.512-2.537-.512-.267 0-.484.217-.484.484s.217.484.484.484c1.482 0 2.875.577 3.923 1.625s1.625 2.44 1.625 3.923c0 .267.217.484.484.484" transform="translate(-97 -399) translate(55 173) translate(42 225.163)"/>
                    <path d="M16.329 6.05c-.43-1.016-1.046-1.929-1.83-2.713-.783-.784-1.696-1.399-2.713-1.829-1.053-.445-2.17-.671-3.323-.671C8.207.837 8 1.044 8 1.3c0 .255.207.462.463.462 4.197 0 7.611 3.415 7.611 7.612 0 .256.208.463.463.463.128 0 .244-.052.327-.136.084-.083.136-.2.136-.327 0-1.152-.226-2.27-.671-3.323M15.055 13.144L12.5 12.2c-.29-.106-.6-.143-.905-.106l-.303.036c-.174.02-.332.108-.441.244-.26.322-.765.91-1.059 1.014-.074.026-.19.03-.32.022-.537-.034-1.04-.27-1.42-.649l-1.39-1.391-.195-.195-1.391-1.39c-.38-.38-.616-.883-.649-1.42-.008-.13-.004-.246.022-.32.103-.294.692-.799 1.014-1.059.136-.11.223-.268.244-.44l.036-.304c.037-.306 0-.616-.106-.905l-.944-2.555c-.137-.372-.42-.673-.787-.824-.303-.125-.7-.185-1.168-.021-1.113.39-2.894 1.03-2.727 4.396.163 3.29 2.33 6.379 3.767 7.726 1.347 1.436 4.437 3.604 7.726 3.767 3.367.167 4.007-1.614 4.396-2.727.164-.468.104-.865-.02-1.168-.152-.366-.454-.65-.825-.787" transform="translate(-97 -399) translate(55 173) translate(42 225.163)"/>
                </g>
            </g>
        </g>
    </g>
</svg>
