<svg xmlns="http://www.w3.org/2000/svg" width="60" height="60" viewBox="0 0 60 60">
    <g fill="none" fill-rule="evenodd">
        <g>
            <g>
                <g>
                    <path fill="#E5EBFF" d="M30 60c16.569 0 30-13.431 30-30C60 13.431 46.569 0 30 0 13.431 0 0 13.431 0 30c0 16.569 13.431 30 30 30z" transform="translate(-158 -201) translate(55 173) translate(103 28)"/>
                    <g fill="#3562FE">
                        <path d="M40.225 2.27c.161.508.534.918.92 1.284.284.268.612.534 1.001.552.118.005.243-.015.337-.087.094-.072.148-.204.105-.314-.058-.146-.24-.188-.38-.26-.174-.088-.302-.243-.426-.394l-.597-.73c-.225-.275-.456-.568-.6-.888-.16-.077-.32-.152-.482-.226v.015c.007.353.015.712.122 1.049M34.247 9.951c.026-.19.154-.385.072-.558-.25.067-.534-.018-.705-.212-.03-.034-.06-.073-.102-.087-.104-.034-.187.09-.227.191-.092.235-.182.512-.048.726.047.075.117.132.184.19.27.234.507.504.706.8.102.154.176.398.018.492-.04.024-.09.031-.129.056-.151.096-.062.324-.017.498.064.243-.008.516-.182.696.084.094.238.079.348.02.111-.06.2-.154.313-.21.114-.057.245-.071.373-.084l.782-.078c.063-.006.128-.013.185-.042.179-.093.178-.365.06-.528-.119-.163-.31-.251-.48-.36-.294-.188-.532-.45-.766-.71-.206-.226-.426-.496-.385-.8M32.251 11.494c.045.173-.115.355-.059.524.07.215.38.19.596.123.112-.035.225-.071.32-.14.318-.229.3-.699.25-1.087-.023-.185-.08-.41-.26-.456-.155-.04-.296.079-.406.204-.135.031-.268.073-.378.155-.143.107-.237.303-.17.468.03.073.087.133.107.21M50.88 39.124c-.188.234-.41.463-.7.544-.238.066-.527.038-.693.22-.128.14-.13.35-.142.538-.03.42-.156.831-.366 1.194-.2.345-.484.685-.454 1.081.006.078.026.158.076.219.07.083.186.114.295.113.407-.004.704-.37.94-.703.43-.607.862-1.217 1.177-1.891.316-.674.51-1.421.436-2.161-.165.297-.355.58-.569.846M10.152 5.436c-.02.023-.051.03-.081.037-.07.015-.225.025-.347.058.066-.054.122-.119.188-.173.049-.04.11-.076.173-.064.062.012.11.095.067.142m18.156-1.139c.106-.268.047-.594-.146-.808.098.12.322.04.361-.11.04-.15-.065-.309-.2-.384-.137-.075-.298-.086-.453-.096l-.444-.028c-.047-.003-.096-.007-.134-.035-.087-.066-.045-.211.036-.284.081-.074.191-.114.26-.198.165-.203 0-.51-.207-.67-.206-.161-.468-.286-.56-.53-.038-.098-.042-.205-.065-.307-.153-.706-.934-.969-1.545-.763-.626.21-1.126.786-1.822.785-.357 0-.69-.166-1.03-.27-1.086-.333-2.217-.032-3.215.431-.52.242-1.03.526-1.511.838-.16.104-.366.214-.502.352-.26.264-.085.802-.383 1.03-.443.341-1.182-.487-1.487.273-.07.173-.133.354-.154.539.074-.009.203.04.3.004-.074.384-.513.666-.772.922-.292.287-.607.619-.75 1.012l.411.03c-.04.182-.083.368-.185.523-.109.167-.277.285-.44.398l-.34.235c-.092.063-.246.112-.29.01-.03-.067.023-.14.079-.184.082-.066.182-.112.246-.195.064-.084.072-.226-.02-.277-.06-.033-.132-.015-.199-.022-.115-.012-.215-.11-.23-.224-.015-.115.056-.235.164-.277.05-.02.108-.023.153-.053.154-.099.05-.372.182-.499.064-.06.18-.089.182-.177.001-.056-.05-.11-.028-.161.03-.066.128-.032.2-.04.06-.008.108-.053.157-.09.133-.1.297-.153.437-.245s.26-.25.23-.414c-.188-.034-.39.02-.533.145-.057.049-.108.11-.18.132-.117.036-.235-.045-.339-.11-.104-.067-.249-.118-.34-.036-.053.048-.068.123-.104.184-.059.097-.17.148-.276.19-.107.04-.22.08-.294.166-.074.086-.088.236.003.304.053.04.132.046.169.1.022.034.023.077.014.116-.045.203-.3.304-.35.506-.035.132.028.268.032.404.006.225-.242.35-.324.107-.09-.268.061-.203-.223-.243-.384-.054-.287-.657-.114-.903.1-.144.255-.25.326-.417.056-.13.093-.52-.153-.445l-.66.2c-.063.02-.131.04-.195.021-.064-.018-.117-.09-.09-.151.13.014.266.028.389-.016.123-.043.23-.164.213-.294-.008-.056-.037-.107-.076-.148-.104-.111-.27-.146-.421-.123-.15.024-.288.099-.416.181-.529.342-.936.856-1.246 1.387.05.03.11.03.167.016l-.005.007c-.083.146.107.148.032.277-.055.095-.255.094-.335.183-.088.097-.096.221-.064.345.033.124.079.255.044.38-.004.016-.01.033-.005.05.007.026.038.037.065.042.463.092.593-.453 1.01-.434.154.007.289.077.45.073.116-.003.221.021.332.023.052 0 .11-.033.114-.085.005-.057-.05-.103-.059-.16-.012-.082.074-.143.15-.176.075-.032.181-.048.223.022.037.064-.013.14-.025.213-.012.068.01.136.01.205.003.13-.07.25-.157.346-.048.052-.102.1-.167.128-.075.03-.159.03-.24.03-.09 0-.26.034-.343-.007-.06-.029-.053-.1-.104-.13-.136-.081-.397-.106-.528-.003-.046.036-.076.089-.118.13-.125.122-.324.118-.5.104-.148-.01-.317-.034-.398-.158-.06-.093-.05-.212-.062-.321-.013-.128-.056-.252-.126-.36-.02-.03-.044-.06-.078-.068-.036-.009-.072.008-.106.022-.151.06-.325.062-.478.005-.106-.04-.2-.105-.305-.144-.102-.038-.253-.036-.403-.024-1.596 1.427-3.04 3.021-4.302 4.756-.239 2.151-1.447 4.097-2.17 6.156C.26 18.926-.07 21.055.257 23.04l.21 1.273c.085.517.171 1.036.322 1.538.118.392.282.782.566 1.077.009-1.178-.308-2.342-.308-3.504.344 1.966.77 6.73 3.546 6.593l.07-.307c.813.268 1.139 1.363 1.962 1.602.19.055.404.063.557.188.166.136.21.365.285.565.288.762 1.088 1.175 1.799 1.572.084.047.172.099.217.184.179.337-.122.642-.232.916-.16.4-.215.753-.136 1.198.054.304.16.605.128.912-.041.387-.294.715-.437 1.077-.454 1.148.23 2.404.89 3.448.564.892 1.165 1.82 2.086 2.336.346.194.729.323 1.06.543.726.485.792 1.444 1.039 2.231.286.917.596 1.828.964 2.717 1.021 2.47 2.69 5.865 5.625 6.304.069.01.143.019.205-.013s.1-.12.055-.173c-.028-.036-.077-.044-.122-.05-1.697-.266-1.86-2.08-2.226-3.415-.08-.294-.024-.69.267-.782.194-.063.406.044.607.01.273-.048.443-.398.312-.642-.03-.056-.075-.107-.133-.135-.075-.037-.163-.032-.242-.059-.187-.062-.276-.32-.167-.484.161-.244.631-.035.895-.154.363-.164.651-.672.754-1.035.219-.774.252-1.715.918-2.166.55-.373 1.345-.249 1.854-.675.919-.768.042-2.328.487-3.44.282-.706 1.106-1.342.796-2.036-.145-.325-.497-.496-.823-.64-1.777-.79-3.721-1.596-5.608-1.125.56-.33.588-1.183.229-1.724-.359-.54-.974-.843-1.56-1.12-.452-.215-.929-.404-1.364-.652-.425-.242-.643-.616-1.013-.909-.48-.379-1.224-.212-1.768-.406-.648-.231-1.163-.23-1.846-.218-.43.002-.224-.005-.545-.333-.194-.199-.377-.365-.656-.432-.143-.035-.292-.043-.437-.071-.497-.097-.955-.47-1.063-.965-.045-.205-.03-.419-.043-.63-.015-.275-.078-.548-.185-.803-.036-.086-.079-.173-.152-.23-.121-.094-.29-.084-.444-.07-.32.031-.653.179-.945.186.052-.865.338-1.773.511-2.627-.246-.427-.876.067-1.033.534-.157.467-.557 1.085-.97.817-.128-.083-.193-.231-.249-.372-.414-1.06-.615-2.204-.587-3.342.024-.98 1.039-1.083 1.756-.74.217.104.506.168.675-.003.156-.158.122-.438.275-.599.02-.021.042-.04.065-.057.472-.341 1.354.43 1.554.788.232.414.169 2.007.694 2.163 1.056.314.053-1.701.053-1.953-.022-.37.04-.648.21-.972.197-.374.48-.804.782-1.097.301-.291.789-.43.997-.809.348-.631.002-1.247.551-1.843.472-.511 1.128-.904 1.796-1.09.238-.066.513-.128.632-.346.118-.217-.16-.56-.34-.39.136-.129 1.083-.69 1.285-.614.301.113-.168.98.48.622l1.504-.833c.149-.083.304-.171.395-.315.09-.144.089-.361-.05-.46-.065-.074-.193-.034-.26.04-.066.073-.101.172-.173.24-.187.177-.637.165-.867.077.088-.293-.034-.635-.284-.81.104.057.262-.043.267-.17.006-.137-.116-.253-.249-.288-.133-.035-.273-.009-.408.018-.293.058-.602.123-.822.326.734-.762 1.691-.774 2.661-.976.446-.094.53-.266.916-.49.092-.052.23-.047.284.044.192.33-.604 1.168-.613 1.549-.003.114.075.238.189.242.296.011.436-.002.73.128.358.157.702.398 1.092.393.39-.005.787-.447.566-.77-.1-.145-.283-.204-.424-.31-.477-.353-.376-1.072-.384-1.665-.008-.594-.478-1.344-1.017-1.094-.222-.67-.52-1.314-.888-1.916-.16-.262-.401-.549-.704-.503-.478.071-.69.868-1.204.72.031-.275.269-.508.261-.787-.007-.26-.255-.44-.477-.577-.252-.156-.508-.313-.792-.398-.284-.085-.603-.09-.864.05-.042.022-.084.05-.103.093-.022.047-.013.101-.007.152.045.37-.117.721-.349 1.002-.173.21-.53.396-.384.725.032.073.086.137.106.214.036.14-.048.28-.127.4-.173.262-.388.55-.7.578-.09.008-.194-.002-.259.062-.068.067-.053.178-.039.273.047.312.027.635-.057.94-.063.229-.194.476-.427.527-.25.054-.495-.163-.556-.41-.061-.247.016-.507.116-.742.067-.159.145-.313.223-.468.016-.032.033-.071.017-.104-.015-.03-.05-.041-.083-.05-.634-.174-1.039-.308-1.554-.699-.128-.097-.36-.143-.427-.288-.076-.162.133-.37-.001-.555-.03-.041-.073-.074-.093-.121-.02-.048-.013-.102-.002-.152.096-.448.702-1.073 1.072-1.323.379-.257.816-.407 1.202-.653.193-.123.369-.272.503-.46.07-.096.156-.191.099-.29-.044-.074-.193-.113-.168-.227.023-.102.174-.103.253-.081.067.019.416.113.44.179.008.023 0 .048-.01.071-.07.194-.154.403-.33.51-.077.047-.166.07-.25.101-.016.006-.032.013-.041.027-.012.018-.007.042 0 .062.044.113.168.179.288.188.121.01.24-.028.354-.069.111-.04.23-.09.286-.192.02-.036.035-.08.074-.09.037-.01.073.018.09.051.017.034.021.072.033.107.046.141.235.213.363.138.011-.006.022-.014.028-.026.007-.015.003-.033-.002-.05-.059-.197-.22-.344-.357-.497-.096-.108-.19-.234-.22-.378-.026-.117.066-.257-.008-.35.166.04.348 0 .484-.101.028-.022.057-.046.092-.049.05-.003.09.04.13.07.137.102.347.053.46-.074.114-.127.147-.31.137-.48-.004-.06-.01-.13.03-.176.051-.056.14-.042.215-.054.143-.023.252-.174.23-.317-.015-.097-.082-.183-.084-.282-.01-.462 1.51-.219 1.648.308.287 1.1-2.157 1.372-1.936 2.486.235-.52 1.034-.327 1.475.036.498.409.847.659 1.487.703.08-.261-.112-.51-.316-.658-.068-.05-.15-.12-.122-.2.105-.041.229-.002.316.07.087.073.144.174.199.274.035.065.082.138.155.147.04.004.078-.01.114-.027.216-.095.445-.298.376-.524-.02-.068-.066-.124-.11-.18l-.213-.262c-.102-.126-.208-.26-.232-.422-.092-.623.725-.46.748.022.002.053-.005.115.035.15.027.023.066.023.102.023.158-.003.325-.008.463-.086.138-.078.233-.255.166-.399.08-.02.162.012.243.026.082.013.184-.006.213-.083.034-.09-.056-.176-.135-.232l-.485-.338c-.178-.124-.928-.115-.543-.443.028-.024.06-.043.08-.075.014-.025.018-.054.021-.083.02-.173.036-.365-.07-.502-.056-.074-.14-.12-.215-.176-.232-.172-.403-.446-.682-.524-.039-.01-.081-.019-.108-.049-.048-.054-.017-.14-.038-.208-.032-.11-.181-.137-.286-.094-.105.043-.184.132-.28.193-.095.06-.232.089-.315.012-.075-.07-.012-.693.02-.695-.181.012-.365-.013-.536-.073-.024-.009-.048-.019-.062-.039-.11-.16.717-.348.801-.345.462.017.635.051 1-.272.4-.355.775-.714 1.23-1.004.324-.206.857-.534 1.26-.508.365.023.663.488 1.076.29.101-.048.188-.136.3-.144.17-.013.293.162.35.323.181.513.07 1.12-.283 1.535.155.059.334.041.483.114.15.072.232.315.085.393-.145.078-.29-.096-.438-.164-.127-.058-.289-.033-.387.066-.098.098-.121.265-.049.384.123.201.414.191.647.156-.01.18-.157.323-.312.417-.154.094-.328.161-.458.286-.57.547-.18 1.885.2 2.44.198.288.464.52.727.747.1.087.208.177.339.196.292.042.542-.285.835-.246.344.045.414.478.71.59.42.158.664-.273.723-.636.06-.37-.067-.682.121-1.039.094-.178.26-.29.335-.479.081-.207.002-.427.143-.621.116-.16.417-.356.585-.47.341-.236.877-.341 1.028-.78.092-.264.027-.623.267-.766.127-.076.288-.05.437-.062.287-.024.553-.222.659-.49" transform="translate(-158 -201) translate(55 173) translate(103 28) translate(2 2)"/>
                        <path d="M9.328 26.94c-.329-.13-.7-.23-1.032-.109-.333.12-.569.547-.377.844.248-.194.586-.267.892-.194.425.102.741.452 1.133.646.4.2.884.226 1.305.072-.546-.545-1.204-.976-1.92-1.26M11.621 29.195c.17-.026.347.022.515.045.287.038.58.034.865-.013.144-.024.284-.08.427-.1.092-.013.246.008.266-.124.01-.065-.04-.123-.089-.169-.237-.228-.495-.442-.797-.574-.301-.131-.653-.174-.96-.057-.162.062-.325.245-.227.387.032.045.084.074.107.124.043.098-.056.204-.158.233-.103.03-.216.016-.315.054-.1.038-.178.169-.11.25.051.06.406-.046.476-.056M29.67 5.812c-.325-.058-.66.03-.99-.002-.252-.024-.498-.119-.751-.102-.042.003-.087.01-.118.038-.039.035-.046.092-.05.143-.024.267-.045.551.08.789.06.116.169.21.29.26l-.045.003c.596.392 1.463.306 1.97-.197.074-.073.142-.157.172-.256.097-.316-.232-.618-.558-.676M33.363.369c.05-.046.099-.043.148-.01l.016-.033c-.043-.033-.094-.03-.164.043" transform="translate(-158 -201) translate(55 173) translate(103 28) translate(2 2)"/>
                        <path d="M32.838 1.063l1.264.494c.084.033.177.066.262.035.164-.061.153-.313.038-.445-.116-.132-.29-.195-.421-.312.122.024.255.046.365-.011.11-.058.161-.232.062-.306-.204.121-.426-.039-.655-.15.035.012.076.023.126.03L33.55.265l-.024.012c.048.008.086.027.128.048-.048-.019-.096-.033-.144-.04l-.728.348c-.079.038-.168.088-.183.175-.021.124.12.21.238.255M12.37 4.087c.48.257 1.168-.153 1.25-.644.008-.044.011-.091-.01-.13-.02-.039-.075-.063-.111-.037-.02.014-.03.04-.041.062-.054.111-.18.183-.303.172-.018-.002-.037-.005-.05-.016-.012-.01-.02-.023-.024-.037-.031-.096.043-.19.109-.266.324-.373-.164-.215-.347-.123-.164.082-.377.163-.513.289-.213.196-.267.566.04.73M14.226 3.779c.023 0 .047-.006.067.006.016.01.025.029.041.039.027.016.06 0 .087-.017.184-.121.331-.352.323-.576-.043-.009-.09-.011-.14-.009-.25.015-.553.172-.49.464.01.052.06.092.112.093M15.483 2.69c.097.016.2.009.295.027.085.118.277.157.406.077.156-.098.205-.318.14-.49-.066-.172-.225-.295-.398-.36-.038-.014-.08-.025-.12-.018-.103.02-.14.146-.214.22-.112.113-.33.13-.363.285-.028.133.12.239.254.26M39.207 17.109c.058.152.204.325.349.252.098-.05.115-.18.118-.29.006-.229.008-.46-.05-.68-.059-.22-.184-.432-.38-.548-.025-.015-.053-.028-.082-.028-.062 0-.109.062-.115.124-.002.032.003.064.013.095-.033.363.017.734.147 1.075" transform="translate(-158 -201) translate(55 173) translate(103 28) translate(2 2)"/>
                        <path d="M51.884 17.26c-.165.188-.491.142-.667-.035-.176-.178-.233-.44-.256-.688-.023-.249-.02-.505-.106-.74-.132-.358-.45-.608-.706-.89-.263-.29-.472-.628-.613-.992-.075-.193-.127-.426-.007-.595.143-.2.437-.196.682-.17.035.004.072.009.098.032.04.035.038.095.034.148-.028.383.005.779.16 1.13.155.352.445.656.813.767.088.027.184.044.255.104.07.06.1.181.03.242-.028.025-.067.035-.097.058-.123.092-.025.283.067.405.131.174.24.364.324.565.09.214.142.485-.011.659m-.88 9.628c-.762-1.169-1.415-2.409-1.948-3.698-.386-.934-.721-1.916-1.374-2.688.462.475.913.96 1.353 1.456.264.299.528.605.699.965.218.46.275.985.504 1.44.145.288.354.539.519.817.265.448.41.969.412 1.49 0 .109-.065.26-.165.218M47.56 15.17c-.315-.192-.744-.266-1.04-.048-.129.094-.22.233-.35.323-.19.131-.46.137-.655.014-.165-.103-.27-.28-.345-.46-.145-.349-.205-.732-.172-1.107.014-.17.05-.343.15-.48.098-.138.274-.231.439-.192.312.074.365.507.613.71.085.07.194.11.304.113.09.002.186-.023.25-.088s.086-.174.036-.25c-.06-.09-.192-.107-.258-.193-.075-.1-.023-.253.076-.33.1-.075.23-.094.354-.11.033-.005.07-.01.1.006.045.023.06.08.064.13.02.227-.08.478.043.67.043.067.109.117.174.164.503.369 1.075.759 1.217 1.367.01.044.016.095-.012.13-.024.031-.066.041-.104.044-.331.028-.6-.24-.884-.413M42.786 1.61c-.075.232-.058.478.095.674.33.419 1.098.427 1.237.941.125.46-.434.841-.91.826-.017.15-.117.289-.255.351-.129-.144-.22-.32-.264-.508l-.363-.004c-.086.333.089.67.183 1.002.094.331.052.777-.27.898-.22.083-.475-.04-.616-.227-.14-.187-.192-.426-.233-.657l.746-.008c-.024-.365-.301-.67-.62-.85-.319-.18-.681-.261-1.027-.38-.922-.314-1.918-.9-2.792-.471-1.085.534-.498 1.897-1.263 2.678-.143.146-.321.258-.44.425-.628.886.084 1.997 1.09 1.658.387-.13.6-.32 1.015-.13.427.196.936.91.544 1.347-.156.175-.461.351-.334.548.418.175.96-.169.978-.621.45-.445.357-1.247-.006-1.766-.09-.127-.201-.24-.263-.384-.254-.586.45-1.291.156-1.859.249-.074.479.2.503.458.025.259-.072.514-.078.773-.016.656.662 1.234 1.306 1.115.221-.04.436-.15.66-.123.223.026.433.292.295.47-.208-.027-.43-.05-.617.043-.187.094-.303.357-.172.52.082.103.249.174.223.303-.036.176-.323.08-.474.177-.187.122-.043.408-.043.632-.002.436-.572.594-1.008.62-.666.039-1.458.02-1.834-.531-.109-.16-.168-.351-.28-.51-.11-.16-.304-.289-.49-.235l.64 1.387c-.43-.107-.92.094-1.149.474-.11.181-.161.39-.25.583-.262.572-.87.968-1.499.976-.17.002-.349-.02-.501.055-.153.074-.244.3-.12.416.08.074.203.066.313.073.622.036 1.072.805.799 1.365-.072.147-.19.28-.347.323-.167.047-.341-.014-.51-.051-.614-.136-1.29.056-1.74.494.515.388.206 1.224.43 1.83.182.49.727.779 1.25.788.524.008 1.025-.215 1.47-.49.15-.092.297-.193.402-.333.358-.48.269-1.017.727-1.462.137-.133.263-.387.404-.495.273-.21.666-.085.982-.129.292-.04.538-.173.838-.082.688.21 1.388 1.039 1.94 1.484.144.116.299.252.314.435.017.214-.175.398-.382.449-.208.05-.426.002-.634-.047-.053.455.59.722.997.511.407-.21.604-.673.77-1.1.043-.112.087-.234.05-.347-.043-.13-.176-.202-.296-.269-.439-.245-.833-.568-1.162-.948-.046-.053-.767-1.198-.295-1.013.028.012.051.034.073.055.767.743 1.476 1.329 2.078 2.232.627.915 1.314 1.854 2.314 2.335.129.062.317.098.385-.027.087-.159-.133-.298-.295-.377-.523-.257-.791-.836-1.02-1.372-.058-.138-.118-.287-.083-.432.075-.307.533-.357.78-.16.247.198.339.525.436.826.097.3.24.624.528.752.47.209 1.013-.214 1.512-.093.368.09.61.465.661.84.053.375-.045.753-.142 1.119-.054.203-.125.427-.309.528-.156.085-.347.054-.522.02-.853-.162-1.728-.334-2.46-.799-.224-.141-.444-.313-.707-.341-.262-.028-.57.175-.528.436.018.113.095.238.026.33-.067.09-.207.057-.312.014l-2.314-.95c-.113-.047-.232-.097-.31-.192-.248-.306.058-.87-.25-1.114-.268-.212-.68-.035-.981-.028-.471.01-.886-.068-1.357.05-.477.118-.931.316-1.408.438-.19.048-.386.085-.58.067-.169-.015-.33-.07-.498-.09-.244-.029-.55.053-.778.19-.051.03-.098.062-.14.098-.207.173-.369.388-.586.559-.476.373-.588.88-.695 1.466-.012.065-.024.13-.06.186-.04.065-.108.107-.173.147-.852.524-1.382 1.087-1.85 1.99-.225.431-.688 1.425-.576 1.927.053.235.245.427.27.666.035.319-.23.585-.33.89-.11.335-.017.7.077 1.04.14.506.318 1.063.773 1.324.132.076.28.122.407.206.282.188.304.438.445.701.168.312.41.553.69.774.383.301.786.42 1.224.603.321.134.584.348.962.228.304-.096.512-.347.816-.436.454-.134.77.13 1.197.178.407.046.758-.257 1.12-.449.363-.191.928-.206 1.067.18.036.102.033.216.07.318.132.37.645.383 1.034.327.365.74-.024 1.652.215 2.44.105.348.325.647.495.968.48.904.548 2.017.182 2.974-.179.468-.454.895-.62 1.367-.404 1.152-.118 2.389.106 3.546.113.578.232 1.165.247 1.755.01.445-.489.916-.054 1.19.768.486 1.81.336 2.58-.148.768-.483 1.317-1.244 1.807-2.008.183-.284.358-.945.688-1.058.171-.059.363-.057.522-.145.152-.085.25-.242.324-.4.137-.295.21-.618.213-.943.003-.268-.028-.575.16-.766.097-.096.23-.14.356-.192.78-.327 1.296-1.052 1.566-1.83.305-.88.075-1.737.284-2.628.348-1.488 1.725-2.467 2.618-3.707.79-1.099 1.21-2.459 1.175-3.812-.31.333-.67.69-1.126.707-.454.016-.89-.565-.58-.899.085-.092.205-.142.32-.193 1.089-.493 2.003-1.365 2.547-2.43.14-.276.26-.575.25-.884-.013-.46-.287-.842-.49-1.235-.077-.149-.222-.9-.516-.654-.195.163-.022.574-.251.684-.155.075-.317-.083-.416-.224-.415-.59-.797-1.201-1.145-1.832-.054-.098-.108-.2-.112-.311-.004-.111.06-.233.168-.258.093-.022.19.035.248.112.058.077.085.172.118.262.141.388.397.734.727.983.153.114.354.211.529.135.064-.028.129-.078.196-.057.025.008.047.026.067.043.268.23.246.658.612.79.323.116.662-.123.99.032.71.337 1.012 1.68 1.154 2.366.375 1.815.171 3.786 1.027 5.484.025.051.053.102.083.153.074-.863.113-1.736.113-2.619 0-11.08-5.975-20.765-14.878-26.01M10.443 28.987c-.167-.094-.371-.118-.556-.067-.017.005-.034.01-.047.022-.087.079.42.45.474.481.092.052.269.14.349.02.045-.069.032-.151-.007-.228-.05-.1-.145-.19-.213-.228M13.99 29.24c.187.223.636.03.437-.24-.264-.358-.722-.1-.437.24" transform="translate(-158 -201) translate(55 173) translate(103 28) translate(2 2)"/>
                    </g>
                </g>
            </g>
        </g>
    </g>
</svg>
