<?xml version="1.0" encoding="UTF-8"?>
<svg width="36px" height="36px" viewBox="0 0 36 36" version="1.1" xmlns="http://www.w3.org/2000/svg" xmlns:xlink="http://www.w3.org/1999/xlink">
    <title>Icons/Navigation 01</title>
    <g id="Page-1" stroke="none" stroke-width="1" fill="none" fill-rule="evenodd">
        <g id="Shop_03" transform="translate(-87.000000, -389.000000)">
            <g id="Group-2" transform="translate(55.000000, 173.000000)">
                <g id="Group" transform="translate(32.000000, 216.000000)">
                    <circle id="Oval-Copy-3" fill="#F6F6F6" cx="18" cy="18" r="18"></circle>
                    <g transform="translate(10.000000, 10.000000)" fill="#3562FE" id="Icons/Call">
                        <g transform="translate(0.000000, -0.836856)">
                            <path d="M10.8149302,5.1182787 C10.3735557,4.93160131 9.90495328,4.83685601 9.42208379,4.83685601 C9.18898824,4.83685601 9,5.02584426 9,5.2589398 C9,5.49203535 9.18898824,5.6810236 9.42208379,5.6810236 C10.9294685,5.6810236 12.1558324,6.90738751 12.1558324,8.41487269 C12.1558324,8.64796824 12.3448207,8.83685601 12.5779162,8.83685601 C12.694464,8.83685601 12.7999598,8.78963407 12.8764192,8.71327518 C12.9527781,8.63691629 13,8.53142046 13,8.41487269 C13,7.9320032 12.9053552,7.46340077 12.7186778,7.02202631 C12.5384306,6.59592363 12.2805184,6.21332542 11.9520748,5.88488173 C11.6236311,5.55643805 11.2410329,5.29842539 10.8149302,5.1182787 Z" id="Fill-52"></path>
                            <path d="M14.5159501,9.83685601 C14.6497235,9.83685601 14.7707071,9.78270124 14.8582763,9.69513181 C14.9458454,9.60756239 15,9.48657832 15,9.35291973 C15,8.47342316 14.8277423,7.62008219 14.4878358,6.8164023 C14.1595668,6.04037591 13.6898045,5.34362289 13.091569,4.74538547 C12.4933336,4.14703283 11.7964676,3.67732658 11.020559,3.34911408 C10.2168817,3.00920646 9.36342836,2.83685601 8.48404991,2.83685601 C8.21673361,2.83685601 8,3.05356728 8,3.32089599 C8,3.58822469 8.21673361,3.80493597 8.48404991,3.80493597 C9.96592705,3.80493597 11.3591981,4.38197237 12.4070319,5.42992486 C13.4548657,6.47776212 14.0319002,7.87092249 14.0319002,9.35291973 C14.0319002,9.62023691 14.2486338,9.83685601 14.5159501,9.83685601" id="Fill-53"></path>
                            <path d="M16.3289551,6.05086717 C15.898962,5.03421928 15.2834427,4.1212633 14.4995838,3.33736034 C13.7156147,2.55345739 12.8027469,1.93796016 11.7859888,1.507956 C10.7332052,1.06263822 9.61509083,0.836856011 8.46282378,0.836856011 C8.20722959,0.836856011 8,1.04406357 8,1.29966877 C8,1.55526295 8.20722959,1.76248153 8.46282378,1.76248153 C12.6598565,1.76248153 16.0744626,5.17699948 16.0744626,9.3741424 C16.0744626,9.62973659 16.2816922,9.83685601 16.5372864,9.83685601 C16.6650835,9.83685601 16.7807619,9.78507615 16.864491,9.70134703 C16.9482201,9.6176179 17,9.50193949 17,9.3741424 C17,8.22176518 16.7742619,7.1036508 16.3289551,6.05086717" id="Fill-54"></path>
                            <path d="M15.0545117,13.1437178 L12.4996883,12.200265 C12.2107268,12.0935135 11.9005704,12.0570049 11.5947418,12.0937354 L11.2915763,12.130133 C11.1183548,12.1508841 10.9603359,12.2382162 10.8508102,12.3739305 C10.5907005,12.6959606 10.0860166,13.2844257 9.79217257,13.3875152 C9.7178238,13.4135928 9.60241676,13.4179206 9.47114126,13.4097089 C8.9352753,13.3764184 8.43214499,13.1406107 8.05252241,12.760988 L6.66164564,11.3699999 L6.4667853,11.1752505 L5.07590853,9.78426244 C4.69628595,9.40463977 4.46036733,8.90150934 4.42707683,8.36575422 C4.41897615,8.23436771 4.42330391,8.11896064 4.44938146,8.04472283 C4.55247102,7.75087868 5.14082499,7.24619469 5.46296599,6.98597395 C5.59856926,6.8764482 5.68601228,6.71842929 5.70676336,6.54531869 L5.74316096,6.2421532 C5.7797805,5.93632447 5.74327193,5.62605701 5.63663139,5.33709546 L4.69306787,2.78227149 C4.55580007,2.4104277 4.27216508,2.1087048 3.90574772,1.9576658 C3.60302618,1.83294848 3.20620351,1.77279255 2.73802822,1.93665949 C1.62490513,2.32624712 -0.156014143,2.96625699 0.010948773,6.33336917 C0.174027798,9.62224868 2.34142749,12.7116071 3.77757933,14.0592066 C5.12517846,15.4953588 8.21464711,17.6627923 11.5035258,17.8259157 C14.8705262,17.9928121 15.5105914,16.2118813 15.9002011,15.0988689 C16.0641013,14.6305825 16.0038455,14.2337598 15.8792281,13.9311491 C15.7280893,13.5646207 15.4263665,13.2810966 15.0545117,13.1437178" id="Fill-55"></path>
                        </g>
                    </g>
                </g>
            </g>
        </g>
    </g>
</svg>